<?xml version="1.0" standalone="no"?>
<!DOCTYPE svg PUBLIC "-//W3C//DTD SVG 20010904//EN"
 "http://www.w3.org/TR/2001/REC-SVG-20010904/DTD/svg10.dtd">
<svg version="1.0" xmlns="http://www.w3.org/2000/svg"
 width="512.000000pt" height="512.000000pt" viewBox="0 0 512.000000 512.000000"
 preserveAspectRatio="xMidYMid meet">
<metadata>
Created by potrace 1.14, written by Peter Selinger 2001-2017
</metadata>
<g transform="translate(0.000000,512.000000) scale(0.100000,-0.100000)"
fill="#000000" stroke="none">
<path d="M163 2427 l2 -1432 495 1 c272 0 522 4 555 8 114 13 150 18 170 22
11 2 34 7 50 10 76 13 164 37 244 65 84 29 271 115 281 129 3 3 12 9 20 12 8
3 51 32 95 65 181 135 319 317 415 547 25 59 66 205 74 261 4 23 9 52 12 65
10 43 12 372 3 440 -21 155 -38 230 -75 340 -60 175 -142 314 -258 433 -209
213 -459 332 -864 412 -89 18 -112 21 -207 31 -33 3 -73 8 -90 10 -16 3 -231
7 -477 9 l-446 4 1 -1432z m982 1119 c223 -19 274 -28 405 -73 147 -51 296
-136 386 -220 111 -104 205 -273 239 -431 3 -12 7 -30 9 -41 2 -10 7 -36 10
-57 4 -22 8 -46 11 -54 17 -62 20 -309 5 -422 -13 -93 -54 -265 -76 -318 -101
-238 -257 -405 -474 -508 -83 -39 -189 -79 -240 -88 -14 -3 -33 -7 -42 -10
-23 -7 -57 -13 -98 -19 -19 -3 -51 -8 -70 -11 -70 -11 -710 -12 -711 0 -3 24
-5 2251 -3 2257 4 7 553 3 649 -5z"/>
<path d="M2704 2418 l1 -1433 570 0 c314 0 597 4 630 8 483 58 779 373 770
815 -2 119 -17 185 -62 279 -71 150 -179 256 -343 339 -50 25 -168 64 -201 67
-31 2 -22 12 30 31 71 25 199 107 254 163 99 99 169 230 184 348 28 208 -33
412 -162 540 -120 121 -295 212 -461 239 -157 27 -191 28 -705 33 l-506 5 1
-1434z m946 1119 c8 -3 40 -8 70 -11 220 -22 377 -114 431 -254 27 -72 35
-223 15 -300 -38 -143 -155 -248 -345 -311 -35 -11 -82 -23 -105 -26 -22 -3
-57 -8 -76 -12 -19 -3 -163 -8 -320 -10 l-285 -5 0 464 c-1 307 3 466 10 471
11 8 581 2 605 -6z m-45 -1221 c486 -15 704 -177 706 -521 0 -202 -64 -324
-214 -404 -61 -33 -153 -66 -207 -76 -18 -3 -36 -8 -39 -10 -21 -12 -188 -19
-481 -19 l-335 -1 0 515 0 515 40 5 c46 6 285 4 530 -4z"/>
<path d="M4700 3821 c-177 -54 -237 -269 -111 -404 46 -50 98 -71 176 -72 60
0 76 4 115 29 56 36 75 58 105 120 86 177 -95 384 -285 327z m165 -67 c90 -49
127 -194 68 -272 -10 -14 -36 -40 -57 -56 -34 -28 -44 -31 -109 -31 -64 0 -77
3 -114 30 -143 102 -94 323 78 353 47 9 86 2 134 -24z"/>
<path d="M4691 3575 c-1 -80 2 -104 13 -108 20 -8 26 2 26 45 0 31 3 38 20 38
11 0 20 -5 20 -11 0 -5 10 -24 23 -42 16 -23 28 -31 45 -29 22 3 22 4 -8 40
l-30 36 25 16 c14 8 25 19 26 25 0 5 2 18 4 27 2 10 -4 27 -14 39 -14 17 -30
22 -83 24 l-66 3 -1 -103z m113 59 c29 -29 15 -48 -36 -50 -37 -2 -38 -1 -38
32 0 31 3 34 29 34 16 0 37 -7 45 -16z"/>
</g>
</svg>
