<?xml version="1.0" encoding="utf-8"?>
<!-- Generator: Adobe Illustrator 26.0.3, SVG Export Plug-In . SVG Version: 6.00 Build 0)  -->
<svg version="1.1" id="Layer_1" xmlns="http://www.w3.org/2000/svg" xmlns:xlink="http://www.w3.org/1999/xlink" x="0px" y="0px"
	 viewBox="0 0 169.8 26.8" style="enable-background:new 0 0 169.8 26.8;" xml:space="preserve" height="27" width="167">
<style type="text/css">
	.Drop_x0020_Shadow{fill:none;}
	.Round_x0020_Corners_x0020_2_x0020_pt{fill:#FFFFFF;stroke:#000000;stroke-miterlimit:10;}
	.Live_x0020_Reflect_x0020_X{fill:none;}
	.Bevel_x0020_Soft{fill:url(#SVGID_1_);}
	.Dusk{fill:#FFFFFF;}
	.Foliage_GS{fill:#FFDD00;}
	.Pompadour_GS{fill-rule:evenodd;clip-rule:evenodd;fill:#44ADE2;}
	.st0{fill:#354099;}
	.st1{fill:#3B3A34;}
</style>
<linearGradient id="SVGID_1_" gradientUnits="userSpaceOnUse" x1="-310.9637" y1="-292.9973" x2="-310.2565" y2="-292.2902">
	<stop  offset="0" style="stop-color:#DEDFE3"/>
	<stop  offset="0.1738" style="stop-color:#D8D9DD"/>
	<stop  offset="0.352" style="stop-color:#C9CACD"/>
	<stop  offset="0.5323" style="stop-color:#B4B5B8"/>
	<stop  offset="0.7139" style="stop-color:#989A9C"/>
	<stop  offset="0.8949" style="stop-color:#797C7E"/>
	<stop  offset="1" style="stop-color:#656B6C"/>
</linearGradient>
<path class="st0" d="M0,0.6h5.6c1.5,0,3,0.1,4.4,0.3c1.4,0.2,2.7,0.5,3.9,0.9c1.2,0.4,2.3,0.9,3.3,1.6c1,0.7,1.8,1.5,2.5,2.4
	c0.7,1,1.2,2.1,1.6,3.4c0.4,1.3,0.6,2.8,0.6,4.4c0,2-0.3,3.7-1,5.3c-0.7,1.6-1.6,2.9-2.8,4c-1.2,1.1-2.8,2-4.6,2.6
	c-1.8,0.6-3.8,0.9-6.1,0.9H0V0.6z M3,23.8h4.6c1.9,0,3.5-0.3,4.9-0.8c1.4-0.5,2.5-1.2,3.4-2.1c0.9-0.9,1.6-2,2-3.2
	c0.4-1.2,0.7-2.6,0.7-4.1c0-1.9-0.3-3.6-0.8-4.9c-0.5-1.3-1.3-2.4-2.4-3.2c-1.1-0.8-2.4-1.4-4-1.8C9.9,3.4,8,3.3,5.9,3.3H3V23.8z"/>
<path class="st0" d="M24.7,8.2h2.9v18.2h-2.9V8.2z M27.6,0.5v2.7h-2.7V0.5H27.6z"/>
<path class="st0" d="M34.4,26.4h-2.9V12.6c0-0.7,0-1.5,0-2.2c0-0.7,0-1.5-0.1-2.1h2.9l0.1,2.7c0.5-1,1.2-1.8,2-2.3
	c0.8-0.6,1.8-0.8,2.8-0.8c0.7,0,1.3,0.1,1.9,0.2l0,2.7c-0.2-0.1-0.5-0.2-0.9-0.3c-0.4-0.1-0.7-0.1-1.1-0.1c-0.7,0-1.4,0.1-1.9,0.4
	c-0.6,0.3-1.1,0.7-1.5,1.2c-0.4,0.5-0.7,1.2-1,1.9c-0.2,0.7-0.3,1.6-0.3,2.5V26.4z"/>
<path class="st0" d="M58.2,24.4c-1,0.8-2.1,1.5-3.3,1.9c-1.2,0.4-2.5,0.6-4.1,0.6c-1.4,0-2.7-0.2-3.8-0.7C46,25.6,45,25,44.3,24.2
	c-0.8-0.8-1.4-1.8-1.8-3c-0.4-1.2-0.6-2.4-0.6-3.8c0-1.3,0.2-2.5,0.6-3.7c0.4-1.2,1-2.2,1.8-3C45,9.8,45.9,9.1,47,8.6
	c1.1-0.5,2.4-0.8,3.8-0.8c1.4,0,2.6,0.2,3.6,0.7c1,0.5,1.9,1.1,2.5,1.9c0.7,0.8,1.2,1.7,1.5,2.8c0.3,1.1,0.5,2.3,0.5,3.6
	c0,0.1,0,0.3,0,0.5c0,0.2,0,0.3,0,0.5H45l0.1,0.8c0.1,0.9,0.3,1.7,0.5,2.4c0.3,0.7,0.7,1.4,1.2,1.9c0.5,0.5,1.1,0.9,1.8,1.2
	s1.6,0.4,2.5,0.4c1.2,0,2.4-0.2,3.4-0.7c1-0.4,2-1.1,2.8-1.9L58.2,24.4z M55.9,15.6l0-0.2c-0.1-0.8-0.2-1.5-0.5-2.1
	c-0.2-0.6-0.6-1.2-1-1.6c-0.4-0.5-0.9-0.8-1.5-1.1c-0.6-0.3-1.3-0.4-2.1-0.4c-0.8,0-1.6,0.1-2.2,0.4c-0.7,0.3-1.2,0.7-1.7,1.2
	c-0.5,0.5-0.9,1.1-1.2,1.7c-0.3,0.7-0.5,1.4-0.6,2.1H55.9z"/>
<path class="st0" d="M74.7,12.2c-0.6-0.7-1.3-1.2-2.1-1.6c-0.8-0.3-1.7-0.5-2.6-0.5c-1,0-1.9,0.2-2.6,0.6c-0.8,0.4-1.4,0.9-2,1.5
	c-0.5,0.7-0.9,1.4-1.2,2.3c-0.3,0.9-0.4,1.8-0.4,2.8c0,1,0.1,1.9,0.4,2.8c0.2,0.9,0.6,1.6,1.1,2.2c0.5,0.6,1.2,1.1,1.9,1.5
	c0.8,0.4,1.7,0.5,2.8,0.5c2,0,3.8-0.7,5.4-2.1l0.8,2.4c-0.9,0.7-1.8,1.2-2.9,1.5c-1.1,0.3-2.2,0.5-3.5,0.5c-1.5,0-2.8-0.2-3.9-0.7
	c-1.1-0.5-2.1-1.2-2.8-2c-0.8-0.8-1.3-1.8-1.7-3c-0.4-1.1-0.6-2.3-0.6-3.6c0-1.3,0.2-2.6,0.6-3.8c0.4-1.2,1-2.2,1.7-3.1
	c0.8-0.9,1.7-1.6,2.8-2.1c1.1-0.5,2.4-0.8,3.8-0.8c1.4,0,2.7,0.2,3.8,0.7c1.1,0.4,1.9,1.1,2.5,1.9L74.7,12.2z"/>
<path class="st0" d="M80.5,10.1h-3.6V8.2h3.6l0.1-4.8l2.8-0.8v5.6H88v1.9h-4.5V21c0,0.4,0,0.8,0,1.2c0,0.4,0.1,0.8,0.2,1.2
	c0.1,0.3,0.3,0.6,0.6,0.8c0.3,0.2,0.7,0.3,1.2,0.3c0.4,0,0.8,0,1.2-0.2c0.4-0.1,0.9-0.2,1.4-0.4l0,2.2c-0.4,0.2-0.9,0.4-1.3,0.5
	c-0.5,0.1-1,0.2-1.6,0.2c-1,0-1.8-0.2-2.4-0.5c-0.6-0.3-1.1-0.8-1.4-1.4c-0.3-0.6-0.5-1.2-0.6-2c-0.1-0.8-0.2-1.6-0.2-2.4V10.1z"/>
<path class="st1" d="M92.7,26.4V0.6h5.1c1,0,1.9,0,2.8,0c0.9,0,1.7,0.1,2.5,0.2c0.9,0.1,1.7,0.3,2.5,0.7c0.8,0.3,1.4,0.8,2,1.3
	c0.6,0.5,1,1.1,1.3,1.8c0.3,0.7,0.5,1.4,0.5,2.3c0,0.7-0.1,1.4-0.3,2c-0.2,0.6-0.6,1.2-1,1.7c-0.4,0.5-0.9,1-1.5,1.3
	c-0.6,0.4-1.2,0.7-1.9,0.9c0,0,0,0,0.1,0c0,0,0.1,0,0.1,0c0.8,0.2,1.6,0.4,2.3,0.8c0.7,0.4,1.3,0.8,1.8,1.4c0.5,0.5,0.9,1.2,1.2,1.9
	c0.3,0.7,0.4,1.5,0.4,2.4c0,0.9-0.2,1.8-0.5,2.7c-0.4,0.9-0.9,1.6-1.6,2.3c-0.7,0.7-1.6,1.2-2.7,1.6c-1.1,0.4-2.3,0.6-3.7,0.6H92.7z
	 M95.7,11.8h3.5c0.9,0,1.7-0.1,2.5-0.2c0.8-0.1,1.6-0.4,2.2-0.7c0.7-0.3,1.2-0.8,1.6-1.3c0.4-0.6,0.6-1.3,0.6-2.2
	c0-0.9-0.2-1.6-0.5-2.1c-0.3-0.5-0.8-1-1.4-1.2c-0.6-0.3-1.3-0.5-2.1-0.6c-0.8-0.1-1.7-0.2-2.7-0.2h-3.7V11.8z M95.7,14.4v9.4h5
	c2.1,0,3.7-0.4,4.9-1.1c1.2-0.7,1.7-1.9,1.7-3.5c0-0.9-0.2-1.7-0.5-2.3c-0.3-0.6-0.8-1.1-1.5-1.5c-0.6-0.4-1.4-0.6-2.4-0.8
	c-0.9-0.2-2-0.2-3.3-0.2H95.7z"/>
<path class="st1" d="M113.1,8.2h2.9v18.2h-2.9V8.2z M115.9,0.5v2.7h-2.7V0.5H115.9z"/>
<path class="st1" d="M122.8,0v26.4h-2.9V0H122.8z"/>
<path class="st1" d="M130.2,0v26.4h-2.9V0H130.2z"/>
<path class="st1" d="M149.4,24.4c-1,0.8-2.1,1.5-3.3,1.9c-1.2,0.4-2.5,0.6-4.1,0.6c-1.4,0-2.7-0.2-3.8-0.7c-1.1-0.5-2.1-1.1-2.8-1.9
	c-0.8-0.8-1.4-1.8-1.8-3c-0.4-1.2-0.6-2.4-0.6-3.8c0-1.3,0.2-2.5,0.6-3.7c0.4-1.2,1-2.2,1.8-3c0.8-0.9,1.7-1.6,2.8-2.1
	c1.1-0.5,2.4-0.8,3.8-0.8c1.4,0,2.6,0.2,3.6,0.7c1,0.5,1.9,1.1,2.5,1.9c0.7,0.8,1.2,1.7,1.5,2.8c0.3,1.1,0.5,2.3,0.5,3.6
	c0,0.1,0,0.3,0,0.5c0,0.2,0,0.3,0,0.5h-13.9l0.1,0.8c0.1,0.9,0.3,1.7,0.5,2.4c0.3,0.7,0.7,1.4,1.2,1.9c0.5,0.5,1.1,0.9,1.8,1.2
	c0.7,0.3,1.6,0.4,2.5,0.4c1.2,0,2.4-0.2,3.4-0.7c1-0.4,2-1.1,2.8-1.9L149.4,24.4z M147.1,15.6l0-0.2c-0.1-0.8-0.2-1.5-0.5-2.1
	c-0.2-0.6-0.6-1.2-1-1.6c-0.4-0.5-0.9-0.8-1.5-1.1c-0.6-0.3-1.3-0.4-2.1-0.4c-0.8,0-1.6,0.1-2.2,0.4c-0.7,0.3-1.2,0.7-1.7,1.2
	c-0.5,0.5-0.9,1.1-1.2,1.7c-0.3,0.7-0.5,1.4-0.6,2.1H147.1z"/>
<path class="st1" d="M156.2,26.4h-2.9V12.6c0-0.7,0-1.5,0-2.2c0-0.7,0-1.5-0.1-2.1h2.9l0.1,2.7c0.5-1,1.2-1.8,2-2.3
	c0.8-0.6,1.8-0.8,2.8-0.8c0.7,0,1.3,0.1,1.9,0.2l0,2.7c-0.2-0.1-0.5-0.2-0.9-0.3c-0.4-0.1-0.7-0.1-1.1-0.1c-0.7,0-1.4,0.1-1.9,0.4
	c-0.6,0.3-1.1,0.7-1.5,1.2s-0.7,1.2-1,1.9c-0.2,0.7-0.3,1.6-0.3,2.5V26.4z"/>
<g>
	<g>
		<path class="st1" d="M167.7,4l-0.5-0.9h-0.4V4h-0.4V1.7h1c0.5,0,0.8,0.3,0.8,0.7c0,0.4-0.3,0.6-0.6,0.7l0.6,0.9H167.7z M167.8,2.4
			c0-0.2-0.2-0.4-0.4-0.4h-0.6v0.7h0.6C167.6,2.8,167.8,2.7,167.8,2.4z"/>
	</g>
	<g>
		<path class="st1" d="M167.2,5.4c-1.5,0-2.7-1.2-2.7-2.7c0-1.5,1.2-2.7,2.7-2.7c1.5,0,2.7,1.2,2.7,2.7
			C169.8,4.2,168.6,5.4,167.2,5.4z M167.2,0.5c-1.2,0-2.2,1-2.2,2.2c0,1.2,1,2.2,2.2,2.2c1.2,0,2.2-1,2.2-2.2
			C169.4,1.5,168.4,0.5,167.2,0.5z"/>
	</g>
</g>
<path class="st0" d="M0,0.6h5.6c1.5,0,3,0.1,4.4,0.3c1.4,0.2,2.7,0.5,3.9,0.9c1.2,0.4,2.3,0.9,3.3,1.6c1,0.7,1.8,1.5,2.5,2.4
	c0.7,1,1.2,2.1,1.6,3.4c0.4,1.3,0.6,2.8,0.6,4.4c0,2-0.3,3.7-1,5.3c-0.7,1.6-1.6,2.9-2.8,4c-1.2,1.1-2.8,2-4.6,2.6
	c-1.8,0.6-3.8,0.9-6.1,0.9H0V0.6z M3,23.8h4.6c1.9,0,3.5-0.3,4.9-0.8c1.4-0.5,2.5-1.2,3.4-2.1c0.9-0.9,1.6-2,2-3.2
	c0.4-1.2,0.7-2.6,0.7-4.1c0-1.9-0.3-3.6-0.8-4.9c-0.5-1.3-1.3-2.4-2.4-3.2c-1.1-0.8-2.4-1.4-4-1.8C9.9,3.4,8,3.3,5.9,3.3H3V23.8z"/>
<path class="st0" d="M24.7,8.2h2.9v18.2h-2.9V8.2z M27.6,0.5v2.7h-2.7V0.5H27.6z"/>
<path class="st0" d="M34.4,26.4h-2.9V12.6c0-0.7,0-1.5,0-2.2c0-0.7,0-1.5-0.1-2.1h2.9l0.1,2.7c0.5-1,1.2-1.8,2-2.3
	c0.8-0.6,1.8-0.8,2.8-0.8c0.7,0,1.3,0.1,1.9,0.2l0,2.7c-0.2-0.1-0.5-0.2-0.9-0.3c-0.4-0.1-0.7-0.1-1.1-0.1c-0.7,0-1.4,0.1-1.9,0.4
	c-0.6,0.3-1.1,0.7-1.5,1.2c-0.4,0.5-0.7,1.2-1,1.9c-0.2,0.7-0.3,1.6-0.3,2.5V26.4z"/>
<path class="st0" d="M58.2,24.4c-1,0.8-2.1,1.5-3.3,1.9c-1.2,0.4-2.5,0.6-4.1,0.6c-1.4,0-2.7-0.2-3.8-0.7C46,25.6,45,25,44.3,24.2
	c-0.8-0.8-1.4-1.8-1.8-3c-0.4-1.2-0.6-2.4-0.6-3.8c0-1.3,0.2-2.5,0.6-3.7c0.4-1.2,1-2.2,1.8-3C45,9.8,45.9,9.1,47,8.6
	c1.1-0.5,2.4-0.8,3.8-0.8c1.4,0,2.6,0.2,3.6,0.7c1,0.5,1.9,1.1,2.5,1.9c0.7,0.8,1.2,1.7,1.5,2.8c0.3,1.1,0.5,2.3,0.5,3.6
	c0,0.1,0,0.3,0,0.5c0,0.2,0,0.3,0,0.5H45l0.1,0.8c0.1,0.9,0.3,1.7,0.5,2.4c0.3,0.7,0.7,1.4,1.2,1.9c0.5,0.5,1.1,0.9,1.8,1.2
	s1.6,0.4,2.5,0.4c1.2,0,2.4-0.2,3.4-0.7c1-0.4,2-1.1,2.8-1.9L58.2,24.4z M55.9,15.6l0-0.2c-0.1-0.8-0.2-1.5-0.5-2.1
	c-0.2-0.6-0.6-1.2-1-1.6c-0.4-0.5-0.9-0.8-1.5-1.1c-0.6-0.3-1.3-0.4-2.1-0.4c-0.8,0-1.6,0.1-2.2,0.4c-0.7,0.3-1.2,0.7-1.7,1.2
	c-0.5,0.5-0.9,1.1-1.2,1.7c-0.3,0.7-0.5,1.4-0.6,2.1H55.9z"/>
<path class="st0" d="M74.7,12.2c-0.6-0.7-1.3-1.2-2.1-1.6c-0.8-0.3-1.7-0.5-2.6-0.5c-1,0-1.9,0.2-2.6,0.6c-0.8,0.4-1.4,0.9-2,1.5
	c-0.5,0.7-0.9,1.4-1.2,2.3c-0.3,0.9-0.4,1.8-0.4,2.8c0,1,0.1,1.9,0.4,2.8c0.2,0.9,0.6,1.6,1.1,2.2c0.5,0.6,1.2,1.1,1.9,1.5
	c0.8,0.4,1.7,0.5,2.8,0.5c2,0,3.8-0.7,5.4-2.1l0.8,2.4c-0.9,0.7-1.8,1.2-2.9,1.5c-1.1,0.3-2.2,0.5-3.5,0.5c-1.5,0-2.8-0.2-3.9-0.7
	c-1.1-0.5-2.1-1.2-2.8-2c-0.8-0.8-1.3-1.8-1.7-3c-0.4-1.1-0.6-2.3-0.6-3.6c0-1.3,0.2-2.6,0.6-3.8c0.4-1.2,1-2.2,1.7-3.1
	c0.8-0.9,1.7-1.6,2.8-2.1c1.1-0.5,2.4-0.8,3.8-0.8c1.4,0,2.7,0.2,3.8,0.7c1.1,0.4,1.9,1.1,2.5,1.9L74.7,12.2z"/>
<path class="st0" d="M80.5,10.1h-3.6V8.2h3.6l0.1-4.8l2.8-0.8v5.6H88v1.9h-4.5V21c0,0.4,0,0.8,0,1.2c0,0.4,0.1,0.8,0.2,1.2
	c0.1,0.3,0.3,0.6,0.6,0.8c0.3,0.2,0.7,0.3,1.2,0.3c0.4,0,0.8,0,1.2-0.2c0.4-0.1,0.9-0.2,1.4-0.4l0,2.2c-0.4,0.2-0.9,0.4-1.3,0.5
	c-0.5,0.1-1,0.2-1.6,0.2c-1,0-1.8-0.2-2.4-0.5c-0.6-0.3-1.1-0.8-1.4-1.4c-0.3-0.6-0.5-1.2-0.6-2c-0.1-0.8-0.2-1.6-0.2-2.4V10.1z"/>
<path class="st1" d="M92.7,26.4V0.6h5.1c1,0,1.9,0,2.8,0c0.9,0,1.7,0.1,2.5,0.2c0.9,0.1,1.7,0.3,2.5,0.7c0.8,0.3,1.4,0.8,2,1.3
	c0.6,0.5,1,1.1,1.3,1.8c0.3,0.7,0.5,1.4,0.5,2.3c0,0.7-0.1,1.4-0.3,2c-0.2,0.6-0.6,1.2-1,1.7c-0.4,0.5-0.9,1-1.5,1.3
	c-0.6,0.4-1.2,0.7-1.9,0.9c0,0,0,0,0.1,0c0,0,0.1,0,0.1,0c0.8,0.2,1.6,0.4,2.3,0.8c0.7,0.4,1.3,0.8,1.8,1.4c0.5,0.5,0.9,1.2,1.2,1.9
	c0.3,0.7,0.4,1.5,0.4,2.4c0,0.9-0.2,1.8-0.5,2.7c-0.4,0.9-0.9,1.6-1.6,2.3c-0.7,0.7-1.6,1.2-2.7,1.6c-1.1,0.4-2.3,0.6-3.7,0.6H92.7z
	 M95.7,11.8h3.5c0.9,0,1.7-0.1,2.5-0.2c0.8-0.1,1.6-0.4,2.2-0.7c0.7-0.3,1.2-0.8,1.6-1.3c0.4-0.6,0.6-1.3,0.6-2.2
	c0-0.9-0.2-1.6-0.5-2.1c-0.3-0.5-0.8-1-1.4-1.2c-0.6-0.3-1.3-0.5-2.1-0.6c-0.8-0.1-1.7-0.2-2.7-0.2h-3.7V11.8z M95.7,14.4v9.4h5
	c2.1,0,3.7-0.4,4.9-1.1c1.2-0.7,1.7-1.9,1.7-3.5c0-0.9-0.2-1.7-0.5-2.3c-0.3-0.6-0.8-1.1-1.5-1.5c-0.6-0.4-1.4-0.6-2.4-0.8
	c-0.9-0.2-2-0.2-3.3-0.2H95.7z"/>
<path class="st1" d="M113.1,8.2h2.9v18.2h-2.9V8.2z M115.9,0.5v2.7h-2.7V0.5H115.9z"/>
<path class="st1" d="M122.8,0v26.4h-2.9V0H122.8z"/>
<path class="st1" d="M130.2,0v26.4h-2.9V0H130.2z"/>
<path class="st1" d="M149.4,24.4c-1,0.8-2.1,1.5-3.3,1.9c-1.2,0.4-2.5,0.6-4.1,0.6c-1.4,0-2.7-0.2-3.8-0.7c-1.1-0.5-2.1-1.1-2.8-1.9
	c-0.8-0.8-1.4-1.8-1.8-3c-0.4-1.2-0.6-2.4-0.6-3.8c0-1.3,0.2-2.5,0.6-3.7c0.4-1.2,1-2.2,1.8-3c0.8-0.9,1.7-1.6,2.8-2.1
	c1.1-0.5,2.4-0.8,3.8-0.8c1.4,0,2.6,0.2,3.6,0.7c1,0.5,1.9,1.1,2.5,1.9c0.7,0.8,1.2,1.7,1.5,2.8c0.3,1.1,0.5,2.3,0.5,3.6
	c0,0.1,0,0.3,0,0.5c0,0.2,0,0.3,0,0.5h-13.9l0.1,0.8c0.1,0.9,0.3,1.7,0.5,2.4c0.3,0.7,0.7,1.4,1.2,1.9c0.5,0.5,1.1,0.9,1.8,1.2
	c0.7,0.3,1.6,0.4,2.5,0.4c1.2,0,2.4-0.2,3.4-0.7c1-0.4,2-1.1,2.8-1.9L149.4,24.4z M147.1,15.6l0-0.2c-0.1-0.8-0.2-1.5-0.5-2.1
	c-0.2-0.6-0.6-1.2-1-1.6c-0.4-0.5-0.9-0.8-1.5-1.1c-0.6-0.3-1.3-0.4-2.1-0.4c-0.8,0-1.6,0.1-2.2,0.4c-0.7,0.3-1.2,0.7-1.7,1.2
	c-0.5,0.5-0.9,1.1-1.2,1.7c-0.3,0.7-0.5,1.4-0.6,2.1H147.1z"/>
<path class="st1" d="M156.2,26.4h-2.9V12.6c0-0.7,0-1.5,0-2.2c0-0.7,0-1.5-0.1-2.1h2.9l0.1,2.7c0.5-1,1.2-1.8,2-2.3
	c0.8-0.6,1.8-0.8,2.8-0.8c0.7,0,1.3,0.1,1.9,0.2l0,2.7c-0.2-0.1-0.5-0.2-0.9-0.3c-0.4-0.1-0.7-0.1-1.1-0.1c-0.7,0-1.4,0.1-1.9,0.4
	c-0.6,0.3-1.1,0.7-1.5,1.2s-0.7,1.2-1,1.9c-0.2,0.7-0.3,1.6-0.3,2.5V26.4z"/>
<g>
	<g>
		<path class="st1" d="M167.7,4l-0.5-0.9h-0.4V4h-0.4V1.7h1c0.5,0,0.8,0.3,0.8,0.7c0,0.4-0.3,0.6-0.6,0.7l0.6,0.9H167.7z M167.8,2.4
			c0-0.2-0.2-0.4-0.4-0.4h-0.6v0.7h0.6C167.6,2.8,167.8,2.7,167.8,2.4z"/>
	</g>
	<g>
		<path class="st1" d="M167.2,5.4c-1.5,0-2.7-1.2-2.7-2.7c0-1.5,1.2-2.7,2.7-2.7c1.5,0,2.7,1.2,2.7,2.7
			C169.8,4.2,168.6,5.4,167.2,5.4z M167.2,0.5c-1.2,0-2.2,1-2.2,2.2c0,1.2,1,2.2,2.2,2.2c1.2,0,2.2-1,2.2-2.2
			C169.4,1.5,168.4,0.5,167.2,0.5z"/>
	</g>
</g>
</svg>
